<?xml version="1.0" encoding="UTF-8"?>
<svg id="_Слой_2" data-name="Слой 2" xmlns="http://www.w3.org/2000/svg" viewBox="0 0 853.97 109.8">
  <defs>
    <style>
      .cls-1 {
        fill: #1d1d1b;
      }
    </style>
  </defs>
  <g id="_Слой_1-2" data-name="Слой 1">
    <g>
      <path class="cls-1" d="M154.27,0v25.53H33.08c-4.21,0-6.31,1.33-6.31,3.98v8.51c0,2.65,2.1,3.98,6.31,3.98h91.68c21.96,0,32.94,8.74,32.94,26.21v14.96c0,17.75-10.98,26.63-32.94,26.63H3.57v-25.53h121.19c4.12,0,6.18-1.28,6.18-3.84v-8.92c0-2.65-2.06-3.98-6.18-3.98H33.08C11.03,67.53,0,59.7,0,44.06v-17.29C0,8.92,11.03,0,33.08,0h121.19Z"/>
      <polygon class="cls-1" points="197.92 0 197.92 40.49 247.19 40.49 287.95 0 325.15 0 270.38 50.92 329.26 109.8 292.21 109.8 248.97 65.33 197.92 65.33 197.92 109.8 171.15 109.8 171.15 0 197.92 0 197.92 0"/>
      <polygon class="cls-1" points="443.05 0 473.93 0 415.6 72.61 415.6 109.8 388.69 109.8 388.69 73.15 329.26 0 360.28 0 401.32 52.29 443.05 0 443.05 0"/>
      <path class="cls-1" d="M480.79,0h132.17c21.14,0,31.7,8.92,31.7,26.76v9.88c0,18.57-10.57,27.86-31.7,27.86h-9.2l45.43,45.29h-37.06l-42.69-43.92h-61.9v43.92h-26.76V0h0ZM507.55,25.53v17.43h106.23c3.57,0,5.35-1.46,5.35-4.39v-8.78c0-2.84-2.06-4.26-6.18-4.26h-105.41Z"/>
      <polygon class="cls-1" points="656.06 0 682.82 0 682.82 109.8 656.06 109.8 656.06 0 656.06 0"/>
      <path class="cls-1" d="M850.54,0v25.53h-121.19c-4.21,0-6.31,1.33-6.31,3.98v8.51c0,2.65,2.1,3.98,6.31,3.98h91.68c21.96,0,32.94,8.74,32.94,26.21v14.96c0,17.75-10.98,26.63-32.94,26.63h-121.19v-25.53h121.19c4.12,0,6.18-1.28,6.18-3.84v-8.92c0-2.65-2.06-3.98-6.18-3.98h-91.68c-22.05,0-33.08-7.82-33.08-23.47v-17.29c0-17.84,11.03-26.76,33.08-26.76h121.19Z"/>
    </g>
  </g>
</svg>